{"title":"End of the Line 2007 DVDRip Xvid BigPerm LKRG","uid":6567170,"size":1032290573,"categoryP":"video","categoryS":"movies","magnet":"?xt=urn:btih:86647438eb02bb4418341707a282b0093970f49b&amp;dn=End+of+the+Line+2007+DVDRip+Xvid+BigPerm+LKRG&amp;tr=udp%3A%2F%2Ftracker.openbittorrent.com%3A80&amp;tr=udp%3A%2F%2Fopen.demonii.com%3A1337&amp;tr=udp%3A%2F%2Ftracker.coppersurfer.tk%3A6969&amp;tr=udp%3A%2F%2Fexodus.desync.com%3A6969","seeders":4,"leechers":1,"uploader":".BONE.","files":2,"time":1311739742,"description":"\nPLOT\n\nIn this unsettling and creepy thriller, Karen (Ilona Elkin), a young nurse who works in a psychiatric ward...\n &lt;a href=&quot;\nhttp://www.imdb.com/title/tt0494224/&quot; rel=&quot;nofollow&quot; target=&quot;_NEW&quot;&gt;\nhttp://www.imdb.com/title/tt0494224/&lt;/a&gt;\n\nEncoded By .......: BigPerm1828\nRuntime ..........: 1h 34mn\nFile Size ........: 984 MB\nResolution .......: 704x396\nIMDb URL .........: http://www.imdb.com/title/tt0494224/\nGenre ............: Horror | Thriller\nLanguage .........: English\nVideo\nID : 0\nFormat : MPEG-4 Visual\nFormat profile : Advanced Simple@L5\nFormat settings, BVOP : Yes\nFormat settings, QPel : No\nFormat settings, GMC : No warppoints\nFormat settings, Matrix : Default (H.263)\nCodec ID : XVID\nCodec ID/Hint : XviD\nDuration : 1h 34mn\nBit rate : 998 Kbps\nWidth : 704 pixels\nHeight : 396 pixels\nDisplay aspect ratio : 16:9\nFrame rate : 23.976 fps\nColor space : YUV\nChroma subsampling : 4:2:0\nBit depth : 8 bits\nScan type : Progressive\nCompression mode : Lossy\nBits/(Pixel*Frame) : 0.149\nStream size : 677 MiB (69%)\nWriting library : XviD 1.2.1 (UTC 2008-12-04)\n\nAudio\nID : 1\nFormat : AC-3\nFormat/Info : Audio Coding 3\nMode extension : CM (complete main)\nCodec ID : 2000\nDuration : 1h 34mn\nBit rate mode : Constant\nBit rate : 448 Kbps\nChannel(s) : 6 channels\nChannel positions : Front: L C R, Side: L R, LFE\nSampling rate : 48.0 KHz\nBit depth : 16 bits\nCompression mode : Lossy\nVideo delay : 42ms\nStream size : 304 MiB (31%)\nAlignment : Split accross interleaves\nInterleave, duration : 500 ms (11.99 video frames)\nInterleave, preload duration : 500 ms\n\n &lt;a href=&quot;\nhttp://leetleech.org/images/29787071476224966588.png&quot; rel=&quot;nofollow&quot; target=&quot;_NEW&quot;&gt;\nhttp://leetleech.org/images/29787071476224966588.png&lt;/a&gt;\n &lt;a href=&quot;\nhttp://leetleech.org/images/89533998180612488453.png&quot; rel=&quot;nofollow&quot; target=&quot;_NEW&quot;&gt;\nhttp://leetleech.org/images/89533998180612488453.png&lt;/a&gt;\n &lt;a href=&quot;\nhttp://leetleech.org/images/89348903309751678578.png&quot; rel=&quot;nofollow&quot; target=&quot;_NEW&quot;&gt;\nhttp://leetleech.org/images/89348903309751678578.png&lt;/a&gt;\n &lt;a href=&quot;\nhttp://leetleech.org/images/65435960139426249009.png&quot; rel=&quot;nofollow&quot; target=&quot;_NEW&quot;&gt;\nhttp://leetleech.org/images/65435960139426249009.png&lt;/a&gt;\n","torrent":{"xt":"urn:btih:86647438eb02bb4418341707a282b0093970f49b","amp;dn":"End+of+the+Line+2007+DVDRip+Xvid+BigPerm+LKRG","amp;tr":["udp%3A%2F%2Ftracker.openbittorrent.com%3A80","udp%3A%2F%2Fopen.demonii.com%3A1337","udp%3A%2F%2Ftracker.coppersurfer.tk%3A6969","udp%3A%2F%2Fexodus.desync.com%3A6969"],"infoHash":"86647438eb02bb4418341707a282b0093970f49b","infoHashBuffer":{"type":"Buffer","data":[134,100,116,56,235,2,187,68,24,52,23,7,162,130,176,9,57,112,244,155]},"announce":[],"urlList":[]}}